<?xml version="1.0" encoding="UTF-8"?><svg id="Layer_1" xmlns="http://www.w3.org/2000/svg" viewBox="0 0 174.88 40"><defs><style>.cls-1{fill:#fff;}</style></defs><path class="cls-1" d="m170.39,7.66l4.17,4.2c.15.12.25.27.31.45.08,1.03-.7,1.09-1.5,1.15-.35.02-.7.05-.98.16-1.4.38-2.66,1.18-3.59,2.3-.93,1.12-1.5,2.49-1.62,3.94-.09.17-.23.31-.39.4-.17.09-.35.13-.54.12-.22-.02-.43-.12-.58-.27l-1.37-1.38c.01.09.01.19.01.26v.91c0,.06,0,.11,0,.17,0,.06-.03.12-.08.19v.08s0,.08,0,.12c.01.08.02.17,0,.29-.03.11-.03.24-.04.36,0,.07,0,.13,0,.19-.01.07-.01.15-.02.23,0,.07-.02.15-.05.21-.04.1-.06.19-.06.28,0,.04,0,.09,0,.13l-.06.29-2.13,10.15-.17.76-.07,1.11-.94,4.79-.15.75h-75.92l-.37-.37-.07.32h-8.12l-4.52-4.55.43-2.05h-2.55l-1.59-1.6c-1.97,1.43-4.35,2.18-6.78,2.14-2.62.1-5.17-.83-7.09-2.61l-2.47-2.49-.53,2.5c-.07.36-.15.69-.24,1.02l-.08.31-.14.45s-.03.08-.05.11c-.14.41-.31.82-.5,1.21,0,.02,0,.03,0,.05-.02.05-.05.1-.08.15-.14.28-.3.55-.47.82-.03.05-.06.1-.08.15l-.1.11c-.23.33-.48.64-.75.94-.07.07-.15.14-.22.21-.08.07-.16.14-.24.21l-.21.2c-.13.11-.26.21-.4.31-.11.08-.23.16-.34.24-1.93,1.15-4.16,1.69-6.41,1.57-3.1,0-5.57-.9-7.14-2.48l-4.41-4.44c-1.76,1-3.76,1.51-5.78,1.48-2.61.08-5.14-.87-7.05-2.65l-2.47-2.49-.8,3.84-.16.76H4.54L0,28.8l.23-1.11L5.23,3.72l.15-.75h8.33l.22.21v-.21h56.13l.21.21v-.21h8.12l4.54,4.58-.23,1.1-.24,1.2h2.34l.37.37c1.03-.6,2.2-.93,3.39-.94.88-.02,1.75.15,2.55.49.81.34,1.54.84,2.14,1.48l-.12-.14,2.2,2.22c1.34-2.52,4.35-4.05,8.44-4.05,3.17,0,5.51.81,6.92,2.27l1.59,1.6.54-2.58.16-.75h8.13l2.33,2.34.33-1.58.16-.75h16l.43.43c1.08-.64,2.32-.96,3.58-.94.76-.03,1.51.11,2.21.41.7.3,1.32.74,1.82,1.31-.03-.03-.05-.06-.08-.09-.04-.05-.09-.11-.14-.15l.82.82c.71-.74,1.56-1.32,2.51-1.71.94-.39,1.96-.59,2.98-.58.54-.03,1.08.01,1.61.14l-.89-.9c-.12-.13-.2-.29-.24-.46-.03-.17-.02-.35.05-.52.06-.16.17-.31.32-.41s.31-.17.49-.18h.71c.19-.02.38-.05.57-.08,1-.21,1.93-.64,2.75-1.25.81-.62,1.48-1.41,1.94-2.31.04-.07.08-.14.11-.22v-.05c.32-.69.52-1.44.58-2.2.02-.24.12-.46.3-.62.17-.16.4-.25.64-.25h.07c.14.01.28.06.4.13.12.07.22.18.3.3.67.66,4.43,4.47,4.43,4.47.31.34.29.77.27,1.21-.01.27-.03.55.03.8.17.03.34.05.52.07.17.01.33.02.5.02.19,0,.38.07.54.18.16.12.27.28.33.46Z"/><path d="m42.94,10.75h5.93l-3.32,15.75c-.61,2.98-1.77,4.69-3.54,5.9-1.78,1.04-3.83,1.52-5.89,1.41-3.92,0-7.68-1.64-8.06-5.63h5.97c.19.94,1.05,1.47,2.36,1.47,1.77,0,2.59-1.07,2.95-2.75l.36-1.74h-.13c-.52.58-1.16,1.04-1.87,1.36-.71.32-1.47.5-2.25.52-3.45,0-6.19-2.75-6.14-6.77.08-4.69,3.13-10.02,8.26-10.02.97-.07,1.94.15,2.8.62.85.47,1.56,1.17,2.02,2.03h.1l.43-2.15Zm-5.09,11.89c2.28,0,3.55-2.63,3.58-4.89,0-1.51-.59-3.06-2.34-3.06-2.38,0-3.59,2.65-3.63,4.93,0,1.54.59,3.01,2.34,3.01m66.6.51c0,1-.86,1.41-2,1.41-1.88,0-2.5-.94-2.51-2.25h-5.9c-.1,4.9,4.27,6.11,8.15,6.11,4.96,0,8.18-2.15,8.25-6.44,0-3.42-2.92-4.47-5.79-5.13-2.21-.51-3.17-.87-3.16-1.71.01-.83,1-1.17,1.96-1.17,1.21,0,2.03.43,2.12,1.54h5.73c-.07-4.09-3.75-5.29-7.51-5.29-4.56,0-8.11,2.07-8.17,5.99,0,3.09,2.08,4.22,5.22,5.03,2.02.53,3.62.7,3.6,1.91Zm43.84-9.86h-.1c-.25-.92-.82-1.73-1.6-2.29-.78-.56-1.72-.84-2.68-.78-2.55,0-4.11,1.27-5.58,3.18h-.1l.54-2.65h-5.97l-3.57,17.09h6.24l1.88-9.22c.43-2.01,1.45-3.41,3-3.41s1.75,1.24,1.43,2.75l-2.06,9.89h6.24l1.88-9.22c.43-2.14,1.45-3.41,3-3.41s1.76,1.17,1.44,2.75l-2.06,9.89h6.24l2.23-10.16c.94-4.29-.5-7.5-4.62-7.5-1.15,0-2.27.28-3.28.82s-1.86,1.33-2.49,2.29ZM1.14,27.84h6.44L12.57,3.87h-6.44L1.14,27.84ZM20.54,10.24c4.35,0,8.51,2.38,8.44,7.78-.06,5.9-4.07,10.32-10.21,10.32-4.22,0-8.44-2.35-8.37-7.71.1-5.76,4.06-10.38,10.13-10.38Zm-1.59,13.91c2.75,0,3.75-3.99,3.75-6.33,0-1.68-.52-3.32-2.33-3.32-2.72,0-3.65,4.22-3.65,6.4,0,1.74.49,3.26,2.26,3.26M14.72,3.87l-.94,4.79h54.12l.94-4.79H14.72Zm43.53,6.37c4.35,0,8.51,2.38,8.44,7.78-.06,5.9-4.08,10.32-10.22,10.32-4.22,0-8.44-2.35-8.36-7.71.13-5.76,4.09-10.38,10.13-10.38Zm-1.56,13.91c2.75,0,3.75-3.99,3.75-6.33,0-1.68-.53-3.32-2.34-3.32-2.71,0-3.65,4.22-3.65,6.4,0,1.74.49,3.26,2.27,3.26m14.32-20.28l-.94,4.79h6.23l.94-4.79h-6.23Zm-4.99,23.97h6.24l3.57-17.09h-6.28l-3.54,17.09Zm19.91.57c-.99.07-1.99-.14-2.87-.6-.88-.46-1.62-1.16-2.12-2.02h-.1l-1.88,8.65h-6.31l5.07-23.7h5.93l-.47,2.28c.62-.84,1.42-1.53,2.35-2.02.92-.49,1.95-.76,2.99-.79,3.75,0,5.96,3.22,5.89,7.4-.08,5.26-2.81,10.8-8.51,10.8h.04Zm-.24-13.36c-2.41,0-3.89,3.09-3.93,5.46,0,1.65.58,3.49,2.56,3.49,2.58,0,3.64-3.41,3.67-5.69,0-1.55-.45-3.26-2.3-3.26Zm36.07,10.09h.1l-.54,2.71h5.93l3.58-17.09h-6.23l-1.99,9.55c-.4,1.98-1.62,3.02-3.16,3.02s-1.88-1.44-1.57-2.95l2.02-9.62h-6.23l-2.21,10.55c-.94,4.6,1.2,7.07,4.79,7.07,1.12-.01,2.23-.32,3.2-.89s1.77-1.39,2.32-2.37v.02Zm33.46,9.38l.94-4.79h-73.98l-.94,4.79h73.98Z"/><path class="cls-1" d="m161.96,15.44c-.06,0-.12-.02-.18-.05-.06-.03-.1-.07-.14-.11-.04-.05-.07-.1-.09-.16-.02-.06-.03-.12-.02-.18.08-.84-.02-1.68-.29-2.47-.27-.79-.71-1.52-1.28-2.14-.57-.61-1.27-1.1-2.04-1.43-.77-.33-1.61-.49-2.45-.47-.12,0-.24-.05-.33-.14-.09-.09-.14-.21-.14-.33s.05-.24.14-.33c.09-.09.21-.14.33-.14.23.01.45.01.68,0,1.67-.18,3.22-.93,4.39-2.13,1.17-1.2,1.89-2.77,2.03-4.44,0-.12.06-.23.15-.31.09-.08.2-.12.32-.12.06,0,.12.02.18.05.05.03.1.07.14.11.04.05.07.1.09.16.02.06.03.12.02.18-.08.83.02,1.68.29,2.47.27.79.7,1.52,1.27,2.14.57.61,1.26,1.1,2.04,1.43.77.33,1.6.49,2.44.47.12,0,.24.05.33.14.09.09.14.21.14.33s-.05.24-.14.33c-.09.09-.21.14-.33.14-1.78.03-3.49.72-4.8,1.93-1.31,1.21-2.12,2.86-2.28,4.64,0,.12-.06.23-.15.31-.09.08-.2.12-.32.12Z"/></svg>