<?xml version="1.0" encoding="UTF-8"?><svg id="Layer_1" xmlns="http://www.w3.org/2000/svg" viewBox="0 0 134.35 40"><defs><style>.cls-1,.cls-2{fill:#fff;}.cls-2{fill-rule:evenodd;}</style></defs><path class="cls-1" d="m126.33,15.44c-.06,0-.12-.02-.18-.05-.06-.03-.1-.07-.14-.11-.04-.05-.07-.1-.09-.16-.02-.06-.03-.12-.02-.18.08-.84-.02-1.68-.29-2.47-.27-.79-.71-1.52-1.28-2.14-.57-.61-1.27-1.1-2.04-1.43-.77-.33-1.61-.49-2.45-.47-.12,0-.24-.05-.33-.14-.09-.09-.14-.21-.14-.33s.05-.24.14-.33c.09-.09.21-.14.33-.14.23.01.45.01.68,0,1.67-.18,3.22-.93,4.39-2.13,1.17-1.2,1.89-2.77,2.03-4.44,0-.12.06-.23.15-.31.09-.08.2-.12.32-.12.06,0,.12.02.18.05.05.03.1.07.14.11.04.05.07.1.09.16.02.06.03.12.02.18-.08.83.02,1.68.29,2.47.27.79.7,1.52,1.27,2.14.57.61,1.26,1.1,2.04,1.43.77.33,1.6.49,2.44.47.12,0,.24.05.33.14.09.09.14.21.14.33s-.05.24-.14.33c-.09.09-.21.14-.33.14-1.78.03-3.49.72-4.8,1.93-1.31,1.21-2.12,2.86-2.28,4.64,0,.12-.06.23-.15.31-.09.08-.2.12-.32.12Z"/><path class="cls-1" d="m47.61,35.24h2.73v-10.31h-2.73v10.31Zm0-11.92h2.73v-2.45h-2.73v2.45Z"/><path class="cls-1" d="m52.11,38.62h2.73v-4.54h.04c.58.88,1.53,1.47,2.98,1.47,2.65,0,4.46-2.11,4.46-5.45s-1.75-5.45-4.48-5.45c-1.41,0-2.37.66-3.04,1.57h-.06v-1.29h-2.63v13.69Zm5.17-5.35c-1.63,0-2.49-1.23-2.49-3.1s.68-3.32,2.39-3.32,2.37,1.37,2.37,3.32-.88,3.1-2.27,3.1Z"/><path class="cls-1" d="m67.78,35.54c2.57,0,4.34-1.25,4.34-3.32,0-2.41-1.91-2.9-3.64-3.26-1.47-.3-2.83-.38-2.83-1.27,0-.74.7-1.15,1.77-1.15,1.17,0,1.87.4,1.99,1.51h2.47c-.2-2.07-1.71-3.42-4.42-3.42-2.35,0-4.2,1.07-4.2,3.3s1.81,2.75,3.66,3.12c1.41.28,2.71.38,2.71,1.37,0,.72-.68,1.19-1.89,1.19s-2.07-.52-2.25-1.71h-2.53c.16,2.19,1.83,3.64,4.83,3.64Z"/><path class="cls-1" d="m82.5,35.24v-10.31h-2.73v5.95c0,1.37-.78,2.33-2.07,2.33-1.17,0-1.71-.66-1.71-1.87v-6.41h-2.71v6.88c0,2.25,1.29,3.72,3.58,3.72,1.45,0,2.25-.54,2.96-1.49h.06v1.21h2.63Z"/><path class="cls-1" d="m84.27,35.24h2.73v-5.99c0-1.37.74-2.25,1.85-2.25,1.01,0,1.59.6,1.59,1.77v6.47h2.73v-5.99c0-1.37.7-2.25,1.85-2.25,1.01,0,1.59.6,1.59,1.77v6.47h2.73v-6.94c0-2.25-1.23-3.66-3.4-3.66-1.31,0-2.39.68-3.1,1.81h-.04c-.5-1.09-1.55-1.81-2.86-1.81-1.43,0-2.43.72-3,1.67h-.06v-1.39h-2.63v10.31Z"/><path class="cls-1" d="m47.65,17.57h2.73V3.2h-2.73v14.38Z"/><path class="cls-1" d="m57.07,17.87c3.2,0,5.39-2.37,5.39-5.45s-2.19-5.45-5.39-5.45-5.39,2.37-5.39,5.45,2.19,5.45,5.39,5.45Zm0-2.09c-1.69,0-2.61-1.35-2.61-3.36s.92-3.38,2.61-3.38,2.61,1.37,2.61,3.38-.94,3.36-2.61,3.36Z"/><path class="cls-1" d="m68.28,21.09c1.53,0,2.86-.36,3.72-1.17.76-.7,1.23-1.69,1.23-3.14V7.26h-2.63v1.09h-.04c-.62-.86-1.57-1.37-2.86-1.37-2.61,0-4.46,1.97-4.46,5.05s2.25,4.93,4.54,4.93c1.31,0,2.09-.52,2.69-1.21h.06v1.13c0,1.41-.74,2.15-2.29,2.15-1.27,0-1.85-.5-2.07-1.15h-2.71c.28,2.01,2.01,3.22,4.83,3.22Zm-.04-6.33c-1.41,0-2.33-1.03-2.33-2.77s.92-2.81,2.31-2.81c1.65,0,2.45,1.29,2.45,2.79s-.7,2.79-2.43,2.79Z"/><path class="cls-1" d="m79.87,17.87c3.2,0,5.39-2.37,5.39-5.45s-2.19-5.45-5.39-5.45-5.39,2.37-5.39,5.45,2.19,5.45,5.39,5.45Zm0-2.09c-1.69,0-2.61-1.35-2.61-3.36s.92-3.38,2.61-3.38,2.61,1.37,2.61,3.38-.94,3.36-2.61,3.36Z"/><path class="cls-1" d="m87.66,13.63h11.82v-2.35h-11.82v2.35Z"/><path class="cls-1" d="m100.35,23.17c0-.46.38-.84.84-.84h1.67c.46,0,.84.38.84.84s-.38.84-.84.84h-1.67c-.46,0-.84-.38-.84-.84Z"/><path class="cls-2" d="m20,0c11.05,0,20,8.95,20,20s-8.95,20-20,20S0,31.05,0,20,8.95,0,20,0Zm-.72,1.5c-2.28.32-4.45,2.15-6.14,5.22-.49.89-.93,1.87-1.32,2.93,2.29-.58,4.81-.92,7.46-.97V1.5Zm-9.15,8.63c.48-1.5,1.06-2.88,1.74-4.11.84-1.52,1.83-2.83,2.95-3.84C8.74,3.95,3.95,8.74,2.18,14.82c1.01-1.12,2.32-2.11,3.84-2.95,1.23-.68,2.61-1.26,4.11-1.74Zm-.48,1.69c-.58,2.29-.92,4.81-.97,7.46H1.5c.32-2.28,2.15-4.45,5.22-6.14.89-.49,1.87-.93,2.93-1.32Zm.48,7.46c.06-2.89.48-5.59,1.16-7.99,2.39-.69,5.1-1.1,7.99-1.16v3.12c-1.08,2.76-3.27,4.95-6.03,6.03h-3.12Zm-1.45,1.45H1.5c.32,2.28,2.15,4.45,5.22,6.14.89.49,1.87.93,2.93,1.32-.58-2.29-.92-4.81-.97-7.46Zm2.61,7.99c-.69-2.39-1.1-5.1-1.16-7.99h3.12c2.76,1.08,4.95,3.27,6.03,6.03v3.12c-2.89-.06-5.59-.48-7.99-1.16Zm-1.16,1.16c-1.5-.48-2.88-1.06-4.11-1.74-1.52-.84-2.83-1.83-3.84-2.95,1.77,6.08,6.56,10.87,12.64,12.64-1.12-1.01-2.11-2.32-2.95-3.84-.68-1.23-1.26-2.61-1.74-4.11Zm9.15,8.63c-2.28-.32-4.45-2.15-6.14-5.22-.49-.89-.93-1.87-1.32-2.93,2.29.58,4.81.92,7.46.97v7.19Zm5.91-.68c1.12-1.01,2.11-2.32,2.95-3.84.68-1.23,1.26-2.61,1.74-4.11,1.5-.48,2.88-1.06,4.11-1.74,1.52-.84,2.83-1.83,3.84-2.95-1.77,6.08-6.56,10.87-12.64,12.64Zm2.99-7.47c-.38,1.06-.83,2.04-1.32,2.93-1.69,3.07-3.86,4.9-6.14,5.22v-7.19c2.64-.05,5.16-.39,7.46-.97Zm2.17-2.17c1.06-.38,2.04-.83,2.93-1.32,3.07-1.69,4.9-3.86,5.22-6.14h-7.19c-.05,2.64-.39,5.16-.97,7.46Zm-.48-7.46c-.06,2.89-.48,5.59-1.16,7.99-2.39.69-5.1,1.1-7.99,1.16v-3.12c1.08-2.76,3.27-4.95,6.03-6.03h3.12Zm1.45-1.45h7.19c-.32-2.28-2.15-4.45-5.22-6.14-.89-.49-1.87-.93-2.93-1.32.58,2.29.92,4.81.97,7.46Zm-2.61-7.99c.69,2.39,1.1,5.1,1.16,7.99h-3.12c-2.76-1.08-4.95-3.27-6.03-6.03v-3.12c2.89.06,5.59.48,7.99,1.16Zm1.16-1.16c1.5.48,2.88,1.06,4.11,1.74,1.52.84,2.83,1.83,3.84,2.95-1.77-6.08-6.56-10.87-12.64-12.64,1.12,1.01,2.11,2.32,2.95,3.84.68,1.23,1.26,2.61,1.74,4.11ZM20.72,1.5c2.28.32,4.45,2.15,6.14,5.22.49.89.93,1.87,1.32,2.93-2.29-.58-4.81-.92-7.46-.97V1.5Z"/></svg>