<?xml version="1.0" encoding="UTF-8"?><svg id="Layer_1" xmlns="http://www.w3.org/2000/svg" viewBox="0 0 77.92 42.3"><defs><style>.cls-1{fill:none;stroke:#fff;stroke-miterlimit:16;stroke-width:.8px;}</style></defs><path class="cls-1" d="m62.96,34c7.51,0,13.6-5.75,13.6-12.85s-6.09-12.85-13.6-12.85-13.6,5.75-13.6,12.85,6.09,12.85,13.6,12.85Z"/><path class="cls-1" d="m60.78,34.72c8.77,0,15.87-6.07,15.87-13.57s-7.11-13.57-15.87-13.57-15.87,6.07-15.87,13.57,7.11,13.57,15.87,13.57Z"/><path class="cls-1" d="m58.59,35.44c10.02,0,18.14-6.4,18.14-14.29s-8.12-14.29-18.14-14.29-18.14,6.4-18.14,14.29,8.12,14.29,18.14,14.29Z"/><path class="cls-1" d="m56.42,36.16c11.28,0,20.42-6.72,20.42-15.01s-9.14-15.01-20.42-15.01-20.42,6.72-20.42,15.01,9.14,15.01,20.42,15.01Z"/><path class="cls-1" d="m54.24,36.88c12.52,0,22.67-7.04,22.67-15.73s-10.15-15.73-22.67-15.73-22.67,7.04-22.67,15.73,10.15,15.73,22.67,15.73Z"/><path class="cls-1" d="m52.05,37.6c13.78,0,24.94-7.36,24.94-16.45s-11.17-16.45-24.94-16.45-24.94,7.36-24.94,16.45,11.17,16.45,24.94,16.45Z"/><path class="cls-1" d="m49.87,38.3c15.03,0,27.22-7.68,27.22-17.15s-12.19-17.15-27.22-17.15-27.22,7.68-27.22,17.15,12.18,17.15,27.22,17.15Z"/><path class="cls-1" d="m47.68,39.02c16.29,0,29.49-8,29.49-17.87S63.97,3.28,47.68,3.28s-29.49,8-29.49,17.87,13.2,17.87,29.49,17.87Z"/><path class="cls-1" d="m45.5,39.74c17.54,0,31.76-8.32,31.76-18.59S63.04,2.56,45.5,2.56,13.74,10.88,13.74,21.15s14.22,18.59,31.76,18.59Z"/><path class="cls-1" d="m43.33,40.46c18.8,0,34.03-8.65,34.03-19.31S62.12,1.84,43.33,1.84,9.3,10.49,9.3,21.15s15.24,19.31,34.03,19.31Z"/><path class="cls-1" d="m41.14,41.18c20.05,0,36.3-8.97,36.3-20.03S61.19,1.12,41.14,1.12,4.83,10.09,4.83,21.15s16.25,20.03,36.3,20.03Z"/><path class="cls-1" d="m38.96,41.9c21.3,0,38.56-9.29,38.56-20.75S60.26.4,38.96.4.4,9.69.4,21.15s17.26,20.75,38.56,20.75Z"/></svg>